PathFileType	4	(X/Y/Z)	Patient4_TMGait_0pt4_02_right_03.trc.trc
DataRate	CameraRate	NumFrames	NumMarkers	Units	OrigDataRate	OrigDataStartFrame	OrigNumFrames
73.684210526316	73.684210526316	5	33	mm	73.684210526316	1	       141
Frame#	Time	Sacral			L.Shoulder			Chest			R.Shoulder			Neck			R.ASIS			L.ASIS			R.Thigh.Superior			R.Thigh.Lateral			R.Thigh.Inferior			R.Patella			L.Thigh.Superior			L.Thigh.Lateral			L.Thigh.Inferior			L.Patella			L.Shank.Superior			L.Shank.Lateral			L.Shank.Inferior			R.Shank.Superior			R.Shank.Lateral			R.Shank.Inferior			R.Heel			R.Midfoot.Superior			R.Midfoot.Lateral			R.Toe			L.Heel			L.Midfoot.Lateral			L.Midfoot.Superior			L.Toe			L.Elbow			L.Wrist			R.Elbow			R.Wrist			
		X1	Y1	Z1	X2	Y2	Z2	X3	Y3	Z3	X4	Y4	Z4	X5	Y5	Z5	X6	Y6	Z6	X7	Y7	Z7	X8	Y8	Z8	X9	Y9	Z9	X10	Y10	Z10	X11	Y11	Z11	X12	Y12	Z12	X13	Y13	Z13	X14	Y14	Z14	X15	Y15	Z15	X16	Y16	Z16	X17	Y17	Z17	X18	Y18	Z18	X19	Y19	Z19	X20	Y20	Z20	X21	Y21	Z21	X22	Y22	Z22	X23	Y23	Z23	X24	Y24	Z24	X25	Y25	Z25	X26	Y26	Z26	X27	Y27	Z27	X28	Y28	Z28	X29	Y29	Z29	X30	Y30	Z30	X31	Y31	Z31	X32	Y32	Z32	X33	Y33	Z33	

1	3.260000000000	859.685529207890	1003.317848546432	432.669268873694	1039.521831013074	1438.606818242527	243.912172161763	1141.849534424644	1371.164537624718	405.461123562079	1055.416378758693	1440.708629609057	579.731430833304	1020.225558978980	1497.913333916281	400.676310456361	1092.990704446019	949.644253369716	543.736524486785	1075.466566433267	968.665798918523	269.152416774412	1182.078418883695	782.705730888189	517.042650988632	1148.009529469686	662.311170046633	597.163342159992	1239.113451075356	625.493704067460	519.353461113616	1264.789744741219	516.272736667293	544.171686946266	1126.954601873635	752.465219391683	300.202598025561	1038.678333388457	634.227574416792	247.065310315035	1124.843367778913	558.671198213636	310.413386927812	1125.699420139413	489.278492823540	322.581830939783	1096.587715230297	416.363316819705	316.427721989414	1004.522795834449	303.201510328909	266.452503733881	1050.710046513525	192.395742771169	341.736454974183	1193.401686784692	435.817580394361	555.064963592963	1076.030970672948	390.338073747444	621.060324833715	1067.462855132316	278.174452666948	575.555186118222	870.234633874450	208.091381623938	557.042620453737	1040.924705571486	149.904972911969	588.847447849076	933.068334964422	149.151579140558	628.674377202664	1108.744446602878	38.466257293794	615.003807072173	919.720331136398	39.124367589584	386.898122606868	993.677558741926	35.451106569935	305.994844187139	1077.116633581945	96.296897323444	332.842518535794	1205.920415194318	42.778325544725	304.998590259782	1061.112827246357	1100.798767567471	93.721012669207	1248.706718785746	915.927779404272	108.720730823674	1022.879474729127	1091.562545556780	696.720397753352	1092.567109288622	839.861560339251	705.440227095747	
2	3.273571428571	858.814164296725	1004.201199313087	431.231079742634	1041.393872935121	1439.150952044018	243.329296672816	1141.781265660660	1371.570757634675	405.921350873096	1053.662328805198	1441.536989989525	579.147132401858	1020.413386686470	1498.528135807776	399.941110011062	1091.431056949946	950.572686323095	543.900696534097	1074.402096957567	968.265328380181	269.564848527403	1180.907812621219	784.366486252735	517.127123329660	1147.598732846835	663.727065296330	597.743460041722	1238.120859278958	626.942744144003	519.455024607971	1264.756442270051	519.551134375716	544.616357713435	1124.413872222382	751.969640560820	300.299755397245	1034.775637283017	634.649331025237	246.581204051802	1119.875251096225	558.194465952559	309.972237978200	1119.929374411811	489.008057661755	322.028836369168	1090.888502840789	416.419561194939	315.847403785767	998.533833874734	303.346268224109	266.130287027462	1044.912675707525	192.511659250155	341.402081853420	1197.544645311238	437.149493406039	555.579701085354	1083.926112146035	384.966158747831	621.704425738525	1081.893306096225	273.051476066538	576.084835996348	890.148855805931	191.126683387166	557.656008985992	1063.034956492609	144.389905005178	589.596181468752	956.243484178309	136.920651690405	629.546154734832	1137.509659510714	38.282299675116	616.151800226038	913.916063312673	39.203653896461	386.839773870283	987.900177502247	35.426005424387	305.950782709840	1071.383860825340	96.288884913691	332.684993850709	1200.161949070859	42.749972660761	304.948597569034	1066.654269705212	1102.553469063715	91.955703166521	1259.123400774830	923.356015699727	107.758646088796	1010.960960691439	1094.728279647250	696.979618692391	1072.479970911799	841.393487885824	707.032380858849	
3	3.287142857143	857.954259393011	1005.057753907984	429.842128696256	1043.240193806330	1439.631731721029	242.767057923384	1141.721224751808	1371.935172115887	406.389670108296	1051.958902161912	1442.341891281788	578.576125797064	1020.612182869179	1499.102535589908	399.216554463765	1089.881905263654	951.433642021453	544.102816091383	1073.450256990175	967.918875878503	269.970661708905	1179.618015721195	785.816182980530	517.265525073672	1146.916462885035	664.970687445911	598.346030225399	1236.808285947955	628.121951638029	519.604032534730	1264.368294017085	522.636386523242	545.063371028914	1121.885019847142	751.461669872554	300.454963324645	1030.907968675829	635.056284616072	246.129470444830	1114.930331828011	557.710997981110	309.585215091915	1114.178349950322	488.729445675663	321.536102808044	1085.221800666343	416.464498865601	315.312826361729	992.599447697738	303.477751141192	265.838762713189	1039.154389291495	192.618180870239	341.102006673133	1201.463677326480	438.374668458914	556.099487145701	1091.859961790164	379.477480256586	622.443128063803	1096.422410417684	267.943370901102	576.648333904179	910.495686421606	174.152061747680	558.423047421928	1085.396524771328	139.008405839247	590.326830860654	979.845697107420	124.782607974204	630.483516257681	1166.496223506763	38.404215714256	617.170118758886	908.144461532418	39.271946963695	386.784727084539	982.148935693549	35.400954180277	305.910081359530	1065.672700180967	96.279882983842	332.539451113651	1194.427612017415	42.724110953762	304.900113398067	1072.151960822972	1104.232769190807	90.259540583726	1269.380274657500	930.637573996755	106.840256518561	999.152558690507	1097.911876075560	697.178585724772	1052.646547771900	843.019845747026	708.527895097100	
4	3.300714285714	857.124081695095	1005.855650347023	428.555879966854	1045.030809347896	1439.992236682658	242.258583105936	1141.679464951074	1372.218034698318	406.881915852528	1050.360404741198	1443.093364326471	578.046987832962	1020.832466601773	1499.596340832040	398.530354377953	1088.359414659838	952.163574798917	544.382993041195	1072.708287670501	967.660898516309	270.378017686924	1178.092930126757	786.851396766141	517.522500129248	1145.717032837929	665.885800376827	599.002798973698	1234.911382720489	628.805170029508	519.846227754762	1263.321868944528	525.359005074977	545.509483348640	1119.402499164989	750.930967267477	300.724576507824	1027.131318219718	635.433176382762	245.747319612209	1110.049581090460	557.215924012552	309.309683410772	1108.488163719258	488.437431075512	321.163432661224	1079.637231298743	416.487900849261	314.871535619182	986.789404517556	303.584367628288	265.605242550214	1033.485435394813	192.706213032124	340.868210943579	1204.925566158398	439.428157706913	556.636804135323	1099.779728014970	373.869505865816	623.330713147620	1111.009895282072	262.980202795613	577.266223256139	931.500546834288	157.400255905159	559.409009222192	1108.047560676128	133.999952059637	591.018256165785	1004.047192152806	112.995586958403	631.490474036914	1195.643162788940	39.166639893032	617.951155115882	902.447903841828	39.320934540955	386.735740930572	976.461482833805	35.376417836717	305.875277131940	1060.017757852153	96.269059988162	332.417324444543	1188.753231962071	42.704063814560	304.855287494425	1077.530447044964	1105.756193696320	88.719168246755	1279.273346535237	937.591031386250	106.027456655289	987.646251261239	1101.091097894956	697.268511684293	1033.423739275023	844.788776755298	709.831504381422	
5	3.314285714286	856.340731746084	1006.567081465032	427.415669294252	1046.744417604084	1440.185895536210	241.836075387517	1141.665459415218	1372.386206012112	407.416973229259	1048.908372899612	1443.764514150712	577.589616637039	1021.084247977858	1499.975657014533	397.910276188001	1086.875409619123	952.709240900766	544.779008777652	1072.231317471173	967.497357280036	270.806896819616	1176.219403151644	787.292234719425	517.961192298249	1143.770822374230	666.339312931059	599.746010613471	1232.201238118224	628.806679006315	520.229060522777	1261.356803453934	527.583301501418	545.949284716809	1116.990771908506	750.365000508096	301.156267334792	1023.487074443703	635.767514996815	245.465207040275	1105.255796599910	556.702564268064	309.192590990703	1102.880913501970	488.126631414818	320.957874544047	1074.161893799091	416.480321961682	314.561286344279	981.145100946444	303.656369988194	265.448634710939	1027.928273166187	192.766675457900	340.724971475657	1207.730748761373	440.278506096672	557.205059449683	1107.647358112318	368.168529201619	624.406874267144	1125.635376332108	258.317237755063	577.948872468052	953.392788823659	141.118957704076	560.644209100952	1131.057635743522	129.633999946227	591.663703950440	1029.027494723108	101.827513612378	632.547902161893	1224.924566704228	40.910325476361	618.393246671444	896.840976503772	39.344276181316	386.695102819007	970.850090171518	35.352229584743	305.848215064087	1054.429401332990	96.255927555103	332.327344111983	1183.150005391991	42.692680256806	304.816192303217	1082.736551013362	1107.057892924471	87.410662299132	1288.652397006649	944.072189271322	105.377189039716	976.594023292953	1104.244448618302	697.213576148029	1015.078401838444	846.727398088658	710.868091696210	
